<svg width="92" height="92" viewBox="0 0 92 92" fill="none" xmlns="http://www.w3.org/2000/svg">
<path fill-rule="evenodd" clip-rule="evenodd" d="M38.0331 29.105C35.5933 31.5054 33.9288 34.365 33.0395 37.6839C32.555 39.4921 32.3216 41.2821 32.3391 43.054L23.0515 40.5654L23.0515 40.5654L39.0143 68.2138L41.4779 59.0195C43.0478 59.9823 44.7629 60.7129 46.6232 61.2114C49.942 62.1007 53.2463 62.1057 56.536 61.2266C59.8682 60.3229 62.7542 58.6708 65.1939 56.2704C67.6336 53.87 69.3026 50.9936 70.2009 47.6412C71.0902 44.3224 71.0618 41.0091 70.1156 37.7014C69.2029 34.4027 67.5464 31.5335 65.146 29.0938C62.7545 26.6206 59.8994 24.9393 56.5805 24.05C53.2281 23.1517 49.8981 23.1757 46.5904 24.1219C43.3253 25.0435 40.4728 26.7045 38.0331 29.105ZM42.8428 53.9257L42.8422 53.9279C44.3465 55.1337 46.0626 55.9949 47.9903 56.5114C50.4711 57.1761 52.8956 57.179 55.264 56.5201C57.6748 55.8367 59.7499 54.5961 61.4891 52.7985C63.2709 50.9764 64.4986 48.8081 65.1723 46.2938C65.846 43.7795 65.8669 41.2879 65.2349 38.819C64.603 36.3501 63.4139 34.217 61.6678 32.4196C59.9216 30.6223 57.8082 29.3913 55.3274 28.7266C52.8466 28.0619 50.3963 28.088 47.9765 28.805C45.5657 29.4884 43.4693 30.7412 41.6876 32.5634C39.9394 34.3945 38.7284 36.5673 38.0547 39.0816C37.5729 40.8797 37.434 42.6658 37.6382 44.4401L36.2611 49.5794L32.9257 48.6857L37.1679 56.0335L38.075 52.6482L42.8428 53.9257Z" fill="black"/>
<ellipse cx="56.6548" cy="35.279" rx="2.37107" ry="2.37107" transform="rotate(-30 56.6548 35.279)" fill="black"/>
<circle cx="60.4538" cy="41.859" r="2.37107" transform="rotate(-30 60.4538 41.859)" fill="black"/>
</svg>
