<svg width="442" height="92" viewBox="0 0 442 92" fill="none" xmlns="http://www.w3.org/2000/svg">
<path d="M14.6345 23.2387C18.4105 23.2387 21.3545 24.1827 23.4665 26.0707C25.6105 27.9587 26.6825 30.5987 26.6825 33.9907C26.6825 35.9427 26.2825 37.7667 25.4825 39.4627C24.7145 41.1587 23.4505 42.5347 21.6905 43.5907C19.9625 44.6467 17.7705 45.1747 15.1145 45.1747H9.97851V57.9427H5.32251V23.2387H14.6345ZM15.1145 40.6627C16.7785 40.6627 18.1225 40.3107 19.1465 39.6067C20.2025 38.9027 20.9545 38.0547 21.4025 37.0627C21.8505 36.0387 22.0745 35.0467 22.0745 34.0867C22.0745 32.4227 21.5305 30.9507 20.4425 29.6707C19.3545 28.3587 17.6585 27.7027 15.3545 27.7027H9.97851V40.6627H15.1145ZM52.9734 57.9427L44.8134 45.1267C44.5574 45.1587 44.1734 45.1747 43.6614 45.1747H38.5254V57.9427H33.8694V23.2387H43.1334C45.5014 23.2387 47.6134 23.6547 49.4694 24.4867C51.3254 25.3187 52.7814 26.5507 53.8374 28.1827C54.8934 29.7827 55.4214 31.7187 55.4214 33.9907C55.4214 36.1347 54.9414 38.1027 53.9814 39.8947C53.0534 41.6867 51.6134 43.0467 49.6614 43.9747L58.3974 57.9427H52.9734ZM43.5654 40.6627C46.0614 40.6627 47.8534 40.0067 48.9414 38.6947C50.0614 37.3827 50.6214 35.8787 50.6214 34.1827C50.6214 33.1587 50.3814 32.1507 49.9014 31.1587C49.4534 30.1667 48.7174 29.3507 47.6934 28.7107C46.7014 28.0387 45.4374 27.7027 43.9014 27.7027H38.5254V40.6627H43.5654Z" fill="black"/>
<path d="M128.613 29.4307C127.365 28.7587 126.037 28.2147 124.629 27.7987C123.221 27.3827 121.893 27.1747 120.645 27.1747C118.757 27.1747 117.253 27.6067 116.133 28.4707C115.045 29.3027 114.501 30.4547 114.501 31.9267C114.501 33.3667 115.141 34.5507 116.421 35.4787C117.733 36.3747 119.589 37.2707 121.989 38.1667C123.781 38.8067 125.285 39.5107 126.501 40.2787C127.749 41.0147 128.773 42.0547 129.573 43.3987C130.405 44.7107 130.821 46.3907 130.821 48.4387C130.821 50.2947 130.357 51.9747 129.429 53.4787C128.501 54.9827 127.173 56.1667 125.445 57.0307C123.749 57.8947 121.749 58.3267 119.445 58.3267C117.301 58.3267 115.237 57.9907 113.253 57.3187C111.269 56.6147 109.525 55.7347 108.021 54.6787L110.085 50.9827C111.269 51.8787 112.693 52.6467 114.357 53.2867C116.021 53.8947 117.573 54.1987 119.013 54.1987C120.869 54.1987 122.485 53.7187 123.861 52.7587C125.269 51.7987 125.973 50.3747 125.973 48.4867C125.973 46.8867 125.381 45.6227 124.197 44.6947C123.045 43.7347 121.413 42.8387 119.301 42.0067C117.349 41.2707 115.717 40.5507 114.405 39.8467C113.125 39.1427 112.021 38.1827 111.093 36.9667C110.165 35.7187 109.701 34.1667 109.701 32.3107C109.701 29.5907 110.645 27.3987 112.533 25.7347C114.453 24.0387 116.933 23.1427 119.973 23.0467C123.717 23.0467 127.189 23.9747 130.389 25.8307L128.613 29.4307ZM147.911 23.2387C151.687 23.2387 154.631 24.1827 156.743 26.0707C158.887 27.9587 159.959 30.5987 159.959 33.9907C159.959 35.9427 159.559 37.7667 158.759 39.4627C157.991 41.1587 156.727 42.5347 154.967 43.5907C153.239 44.6467 151.047 45.1747 148.391 45.1747H143.255V57.9427H138.599V23.2387H147.911ZM148.391 40.6627C150.055 40.6627 151.399 40.3107 152.423 39.6067C153.479 38.9027 154.231 38.0547 154.679 37.0627C155.127 36.0387 155.351 35.0467 155.351 34.0867C155.351 32.4227 154.807 30.9507 153.719 29.6707C152.631 28.3587 150.935 27.7027 148.631 27.7027H143.255V40.6627H148.391ZM189.706 23.2387V27.7027H171.802V38.2627H187.786V42.7267H171.802V53.4307H190.378V57.9427H167.146V23.2387H189.706ZM223.993 55.3507C222.873 56.0867 221.449 56.7747 219.721 57.4147C218.025 58.0227 216.169 58.3267 214.153 58.3267C210.601 58.3267 207.465 57.5427 204.745 55.9747C202.057 54.4067 199.977 52.2947 198.505 49.6387C197.065 46.9827 196.345 44.0547 196.345 40.8547C196.345 37.4307 197.081 34.3587 198.553 31.6387C200.025 28.8867 202.057 26.7427 204.649 25.2067C207.273 23.6387 210.233 22.8547 213.529 22.8547C215.481 22.8547 217.305 23.1107 219.001 23.6227C220.697 24.1347 222.217 24.8067 223.561 25.6387L221.689 30.0067C219.033 28.2147 216.361 27.3187 213.673 27.3187C211.433 27.3187 209.353 27.9107 207.433 29.0947C205.545 30.2787 204.025 31.8947 202.873 33.9427C201.753 35.9587 201.193 38.1827 201.193 40.6147C201.193 43.1107 201.705 45.3667 202.729 47.3827C203.785 49.3987 205.273 50.9827 207.193 52.1347C209.145 53.2547 211.385 53.8147 213.913 53.8147C217.017 53.8147 219.721 52.9347 222.025 51.1747L223.993 55.3507ZM252.329 23.2387V27.7027H243.017V57.9427H238.361V27.7027H229.289V23.2387H252.329ZM284.27 23.2387C288.046 23.2387 290.99 24.1827 293.102 26.0707C295.246 27.9587 296.318 30.5987 296.318 33.9907C296.318 35.9427 295.918 37.7667 295.118 39.4627C294.35 41.1587 293.086 42.5347 291.326 43.5907C289.598 44.6467 287.406 45.1747 284.75 45.1747H279.614V57.9427H274.958V23.2387H284.27ZM284.75 40.6627C286.414 40.6627 287.758 40.3107 288.782 39.6067C289.838 38.9027 290.59 38.0547 291.038 37.0627C291.486 36.0387 291.71 35.0467 291.71 34.0867C291.71 32.4227 291.166 30.9507 290.078 29.6707C288.99 28.3587 287.294 27.7027 284.99 27.7027H279.614V40.6627H284.75ZM308.161 23.2387V53.4307H325.825V57.9427H303.505V23.2387H308.161ZM351.557 48.8227H338.213L334.517 57.9427H329.909L345.077 21.7987H345.365L360.533 57.9427H355.157L351.557 48.8227ZM349.973 44.7907L345.029 32.1187L339.893 44.7907H349.973ZM371.677 23.2387V57.9427H367.021V23.2387H371.677ZM407.134 55.3507C406.014 56.0867 404.59 56.7747 402.862 57.4147C401.166 58.0227 399.31 58.3267 397.294 58.3267C393.742 58.3267 390.606 57.5427 387.886 55.9747C385.198 54.4067 383.118 52.2947 381.646 49.6387C380.206 46.9827 379.486 44.0547 379.486 40.8547C379.486 37.4307 380.222 34.3587 381.694 31.6387C383.166 28.8867 385.198 26.7427 387.79 25.2067C390.414 23.6387 393.374 22.8547 396.67 22.8547C398.622 22.8547 400.446 23.1107 402.142 23.6227C403.838 24.1347 405.358 24.8067 406.702 25.6387L404.83 30.0067C402.174 28.2147 399.502 27.3187 396.814 27.3187C394.574 27.3187 392.494 27.9107 390.574 29.0947C388.686 30.2787 387.166 31.8947 386.014 33.9427C384.894 35.9587 384.334 38.1827 384.334 40.6147C384.334 43.1107 384.846 45.3667 385.87 47.3827C386.926 49.3987 388.414 50.9827 390.334 52.1347C392.286 53.2547 394.526 53.8147 397.054 53.8147C400.158 53.8147 402.862 52.9347 405.166 51.1747L407.134 55.3507ZM437.534 23.2387V27.7027H419.63V38.2627H435.614V42.7267H419.63V53.4307H438.206V57.9427H414.974V23.2387H437.534Z" fill="black"/>
<path fill-rule="evenodd" clip-rule="evenodd" d="M71.0331 29.105C68.5933 31.5054 66.9288 34.365 66.0395 37.6839C65.555 39.4921 65.3216 41.2821 65.3391 43.054L56.0515 40.5654L56.0515 40.5654L72.0143 68.2138L74.4779 59.0195C76.0478 59.9823 77.7629 60.7129 79.6232 61.2114C82.942 62.1007 86.2463 62.1057 89.536 61.2266C92.8682 60.3229 95.7542 58.6708 98.1939 56.2704C100.634 53.87 102.303 50.9936 103.201 47.6412C104.09 44.3224 104.062 41.0091 103.116 37.7014C102.203 34.4027 100.546 31.5335 98.146 29.0938C95.7545 26.6206 92.8994 24.9393 89.5805 24.05C86.2281 23.1517 82.8981 23.1757 79.5904 24.1219C76.3253 25.0435 73.4728 26.7045 71.0331 29.105ZM75.8428 53.9257L75.8422 53.9279C77.3465 55.1337 79.0626 55.9949 80.9903 56.5114C83.4711 57.1761 85.8956 57.179 88.264 56.5201C90.6748 55.8367 92.7499 54.5961 94.4891 52.7985C96.2709 50.9764 97.4986 48.8081 98.1723 46.2938C98.846 43.7795 98.8669 41.2879 98.2349 38.819C97.603 36.3501 96.4139 34.217 94.6678 32.4196C92.9216 30.6223 90.8082 29.3913 88.3274 28.7266C85.8466 28.0619 83.3963 28.088 80.9765 28.805C78.5657 29.4884 76.4693 30.7412 74.6876 32.5634C72.9394 34.3945 71.7284 36.5673 71.0547 39.0816C70.5729 40.8797 70.434 42.6658 70.6382 44.4401L69.2611 49.5794L65.9257 48.6857L70.1679 56.0335L71.075 52.6482L75.8428 53.9257Z" fill="black"/>
<ellipse cx="89.6548" cy="35.279" rx="2.37107" ry="2.37107" transform="rotate(-30 89.6548 35.279)" fill="black"/>
<circle cx="93.4538" cy="41.859" r="2.37107" transform="rotate(-30 93.4538 41.859)" fill="black"/>
</svg>
